<svg id="Layer_1" data-name="Layer 1" xmlns="http://www.w3.org/2000/svg" viewBox="0 0 79.28 67.05"><defs><style>.prozone-1{fill:#1f2945;}.prozone-2{fill:#2c3251;}.prozone-3{fill:#3d4672;}.prozone-4{fill:#424571;}.prozone-5{fill:#323f8c;}.prozone-6{fill:#425297;}.prozone-7{fill:#4351a8;}</style></defs><title>prozone</title><g id="layer102"><path class="prozone-1" d="M74.7,128.8a4.79,4.79,0,0,1,.5-3c.8-1.6,2.9-1.8,19.6-2,17.5-.2,17.8-.3,4.7-.5-7.7-.2-14.4-.8-14.9-1.3s-.4-1.5.4-2.5c1-1.2,3.8-1.5,14.9-1.5,14.9,0,17.4.7,15.3,4-1.2,1.9-1,2,4.2,2,5.8,0,7.1.8,6.1,4-.6,1.9-1.6,2-25.5,2C81,130,75.1,129.7,74.7,128.8Z" transform="translate(-60.92 -62.95)"/><path class="prozone-1" d="M61.5,115.7c-.3-.7-.4-12.7-.3-26.7l.3-25.5h78l.3,25.9c.2,20.1-.1,26.1-1,26.8-.7.4-18.3.8-39.1.8C70.1,117,61.8,116.7,61.5,115.7Zm75.3-25.4-.3-22.8-36.2-.3L64,67v7.5c0,4.1.3,7.5.7,7.5s5.4-2.7,11.3-6,11.2-6,11.8-6S89,71.2,89,72.8c0,2.4-1,3.2-8.2,7.1l-8.2,4.4,8.2,4.1C88.1,92,89,92.7,89,95.2c0,1.6-.5,2.8-1,2.8s-6-2.5-12-5.5S64.8,87,64.5,87s-.5,5.9-.5,13v13h73Z" transform="translate(-60.92 -62.95)"/><path class="prozone-1" d="M93.7,111.3c-1.4-.4-1.7-1.1-1.4-2.6.3-1.2,1.1-4.4,1.7-7.2,1.7-7,2.7-7.9,7.3-6,2,.8,3.7,1.7,3.7,2a28.73,28.73,0,0,1-2.1,4.2C97.3,112,97.1,112.2,93.7,111.3Z" transform="translate(-60.92 -62.95)"/><path class="prozone-1" d="M111,95.2c0-2.4.9-3.2,7.5-6.5,4.1-2,7.5-4,7.5-4.4s-3.4-2.6-7.5-4.8c-6.6-3.5-7.5-4.3-7.5-6.7,0-1.6.5-2.8,1.2-2.8s6,2.7,12,6.1c14.6,8.2,14.6,9-.2,16.4-6,3-11.4,5.5-12,5.5S111,96.7,111,95.2Z" transform="translate(-60.92 -62.95)"/><path class="prozone-1" d="M96,84.5,92.6,81l3.7-3.8,3.7-3.7,3.7,3.7,3.7,3.8L104,84.5a22.11,22.11,0,0,1-4,3.5A22.11,22.11,0,0,1,96,84.5Z" transform="translate(-60.92 -62.95)"/></g><g id="layer103"><path class="prozone-2" d="M75.5,128a5,5,0,0,1,0-3c.4-.6,8.1-1.1,19.3-1.2,17.6-.2,17.9-.3,4.7-.5-7.7-.2-14.4-.8-14.9-1.3s-.4-1.5.4-2.5c1-1.2,3.8-1.5,14.9-1.5,14.9,0,17.4.7,15.3,4-1.2,1.9-1,2,4.2,2,5.7,0,7.1,1.1,5.4,4.3-.8,1.5-3,1.7-24.8,1.7C77,130,76.1,129.9,75.5,128Z" transform="translate(-60.92 -62.95)"/><path class="prozone-2" d="M62.8,116.3c-1.7-.4-1.8-2.5-1.8-26.3,0-22.6.2-25.9,1.6-26.4.9-.3,18.1-.6,38.3-.6,27.2,0,37,.3,37.9,1.2s1.2,8.1,1.2,26.4v25.2l-2.2.6C135.2,117.1,65.4,117,62.8,116.3Zm74-26.5-.3-23.3-36-.1c-23.2-.1-36.2.2-36.6.8-.6,1,0,13.9.7,14.7.2.2,5.2-2.4,11.2-5.8S87.2,70,87.8,70,89,71.2,89,72.8c0,2.4-1,3.2-8.2,7.1l-8.2,4.4,8.2,4.1C88.1,92,89,92.7,89,95.2c0,1.6-.5,2.8-1,2.8s-6-2.5-12-5.5S64.8,87,64.5,87s-.5,5.9-.5,13v13h73Z" transform="translate(-60.92 -62.95)"/><path class="prozone-2" d="M93.7,111.3c-1.4-.4-1.7-1.1-1.4-2.6.3-1.2,1.1-4.4,1.7-7.2,1.7-7,2.7-7.9,7.3-6,2,.8,3.7,1.7,3.7,2a28.73,28.73,0,0,1-2.1,4.2C97.3,112,97.1,112.2,93.7,111.3Z" transform="translate(-60.92 -62.95)"/><path class="prozone-2" d="M111,95.2c0-2.4.9-3.2,7.5-6.5,4.1-2,7.5-4,7.5-4.4s-3.4-2.6-7.5-4.8c-6.6-3.5-7.5-4.3-7.5-6.7,0-1.6.5-2.8,1.2-2.8s6,2.7,12,6.1c14.6,8.2,14.6,9-.2,16.4-6,3-11.4,5.5-12,5.5S111,96.7,111,95.2Z" transform="translate(-60.92 -62.95)"/><path class="prozone-2" d="M95.7,83.9l-2.4-3.1,3.3-3.7,3.4-3.6,3.6,3.9,3.5,3.9-2.7,2.8C100.8,87.8,98.7,87.8,95.7,83.9Z" transform="translate(-60.92 -62.95)"/></g><g id="layer104"><path class="prozone-3" d="M76,128.5c-1-1.2-1-1.8,0-3s4.7-1.5,19.4-1.7l18.1-.2-14-.6c-13.2-.5-14-.6-14-2.5s.7-2,14-2.2c15.1-.3,17.8.3,15.8,3.6-1.2,1.9-1,2,4,2.3,4.8.3,5.2.5,5.2,2.8v2.5l-23.6.3C80.8,130,77.1,129.8,76,128.5Z" transform="translate(-60.92 -62.95)"/><path class="prozone-3" d="M62.8,115.9c-1.6-.9-1.8-3.3-1.8-26.3,0-22.2.2-25.5,1.6-26,2.8-1.1,73.4-.7,75.5.4,1.8,1,1.9,2.4,1.9,25.8,0,23.6-.1,24.8-2,26C135.5,117.3,65.5,117.5,62.8,115.9Zm74-25.7-.3-23.7h-73L63.2,89c-.1,12.3,0,23,.2,23.7.4.9,9.1,1.2,37.1,1.2l36.5-.1Z" transform="translate(-60.92 -62.95)"/><path class="prozone-3" d="M93.7,111.3c-1.4-.4-1.7-1.1-1.4-2.6.3-1.2,1.1-4.4,1.7-7.2,1.7-7,2.7-7.9,7.3-6,2,.8,3.7,1.7,3.7,2a28.73,28.73,0,0,1-2.1,4.2C97.3,112,97.1,112.2,93.7,111.3Z" transform="translate(-60.92 -62.95)"/><path class="prozone-3" d="M75.8,92.4c-14.6-7.3-14.6-8.1,0-16.3,6-3.4,11.4-6.1,12-6.1S89,71.2,89,72.8c0,2.4-1,3.2-8.2,7.1l-8.2,4.4,8.2,4.1C88.1,92,89,92.7,89,95.2c0,1.6-.5,2.8-1.2,2.7S81.7,95.4,75.8,92.4Z" transform="translate(-60.92 -62.95)"/><path class="prozone-3" d="M111,95.2c0-2.4.9-3.2,7.5-6.5,4.1-2,7.5-4,7.5-4.4s-3.4-2.6-7.5-4.8c-6.6-3.5-7.5-4.3-7.5-6.7,0-1.6.5-2.8,1.2-2.8s6,2.7,12,6.1c14.6,8.2,14.6,9-.2,16.4-6,3-11.4,5.5-12,5.5S111,96.7,111,95.2Z" transform="translate(-60.92 -62.95)"/><path class="prozone-3" d="M96.6,84.4A14.84,14.84,0,0,1,94,81.1c0-.4,1.3-2,3-3.6l2.9-2.8,3.5,3.1,3.4,3-3,3.1c-1.7,1.7-3.4,3.1-3.8,3.1S98.1,85.8,96.6,84.4Z" transform="translate(-60.92 -62.95)"/></g><g id="layer105"><path class="prozone-4" d="M76.3,127.5a2.49,2.49,0,0,1,.2-2.3c.3-.4,8.8-.9,18.8-1.2l18.2-.5-14-.5c-13.2-.5-14-.6-14-2.5s.7-2,14-2.2c15.2-.3,17.8.3,15.7,3.7-1.1,1.8-1,2,1.8,2.1,1.6.1,3.5.3,4,.4s1.7.3,2.5.4,1.5,1,1.5,2.1c0,1.9-.7,2-24,2C80.2,129,76.9,128.8,76.3,127.5Z" transform="translate(-60.92 -62.95)"/><path class="prozone-4" d="M62.5,115.4c-1.3-1-1.5-4.8-1.5-25.6,0-17.6.3-24.7,1.2-25.6S72.9,63,100.1,63c32.1,0,37,.2,38.3,1.6,2.4,2.3,2.4,48.5,0,50.5C136.3,116.8,64.9,117.1,62.5,115.4Zm75-25.4V66.5l-37.2-.3L63,66V89.3c0,12.9.3,23.7.7,24s17.1.6,37.2.4l36.6-.2Z" transform="translate(-60.92 -62.95)"/><path class="prozone-4" d="M93.7,111.3c-1.4-.4-1.7-1.1-1.4-2.6.3-1.2,1.1-4.4,1.7-7.2,1.7-7,2.7-7.9,7.3-6,2,.8,3.7,1.7,3.7,2a28.73,28.73,0,0,1-2.1,4.2C97.3,112,97.1,112.2,93.7,111.3Z" transform="translate(-60.92 -62.95)"/><path class="prozone-4" d="M75.8,92.4c-14.6-7.3-14.6-8.1,0-16.3,6-3.4,11.4-6.1,12-6.1S89,71.2,89,72.8c0,2.4-1,3.2-8.2,7.1l-8.2,4.4,8.2,4.1C88.1,92,89,92.7,89,95.2c0,1.6-.5,2.8-1.2,2.7S81.7,95.4,75.8,92.4Z" transform="translate(-60.92 -62.95)"/><path class="prozone-4" d="M111,95.2c0-2.4.9-3.2,7.5-6.5,4.1-2,7.5-4,7.5-4.4s-3.4-2.6-7.5-4.8c-6.6-3.5-7.5-4.3-7.5-6.7,0-1.6.5-2.8,1.2-2.8s6,2.7,12,6.1c14.6,8.2,14.6,9-.2,16.4-6,3-11.4,5.5-12,5.5S111,96.7,111,95.2Z" transform="translate(-60.92 -62.95)"/><path class="prozone-4" d="M96.5,83.8l-2.6-3.1,3-3.1,3.1-3.1,3.2,3.2,3.2,3.3-2.9,3c-1.6,1.6-3.2,3-3.6,3S98,85.6,96.5,83.8Z" transform="translate(-60.92 -62.95)"/></g><g id="layer106"><path class="prozone-5" d="M76.3,127.5a2.49,2.49,0,0,1,.2-2.3c.3-.4,10.7-.8,22.9-.9,17.3-.2,22.6,0,24.1,1.1,4.2,3.1.8,3.6-23.1,3.6C80.2,129,76.9,128.8,76.3,127.5Z" transform="translate(-60.92 -62.95)"/><path class="prozone-5" d="M85.3,121.5c-1.1-3.1,1.2-3.6,15.3-3.3,13.1.3,13.9.4,13.9,2.3s-.8,2-14.3,2.3C87.9,123,85.9,122.8,85.3,121.5Z" transform="translate(-60.92 -62.95)"/><path class="prozone-5" d="M62.2,114.8c-1.3-1.3-1.8-46.1-.6-49.2.5-1.4,4.9-1.6,38.9-1.6s38.4.2,38.9,1.6c1.2,3.1.7,47.9-.6,49.2C137.1,116.5,63.9,116.5,62.2,114.8ZM137.5,90V66.5l-37.2-.3L63,66V89.3c0,12.9.3,23.7.7,24s17.1.6,37.2.5l36.6-.3Z" transform="translate(-60.92 -62.95)"/><path class="prozone-5" d="M93.6,110.7c-1.9-1.4-1.7-3.1,1.4-11.2.5-1.1,1.1-2.8,1.4-3.7.7-2.3,1.4-2.2,5.3.2l3.3,1.9-4.3,7.1c-2.3,3.8-4.4,7-4.8,7A8.2,8.2,0,0,1,93.6,110.7Z" transform="translate(-60.92 -62.95)"/><path class="prozone-5" d="M75.8,92.4c-14.6-7.4-14.6-8.1.1-16.3,6-3.4,11.4-6.1,12-6.1S89,71.2,89,72.8c0,2.4-1,3.2-8,7-4.4,2.4-8,4.4-8,4.6s3.6,2.1,8,4.2c7.2,3.4,8,4,8,6.6,0,1.6-.5,2.8-1.2,2.7S81.7,95.4,75.8,92.4Z" transform="translate(-60.92 -62.95)"/><path class="prozone-5" d="M111,95.2c0-2.4.9-3.2,7.5-6.5,4.1-2,7.5-4,7.5-4.5s-3.4-2.5-7.5-4.7C112,76,111,75.1,111,72.8c0-1.6.5-2.8,1.1-2.8s6,2.7,12,6.1c14.8,8.2,14.8,8.9-.1,16.4-6,3-11.4,5.5-12,5.5S111,96.7,111,95.2Z" transform="translate(-60.92 -62.95)"/><path class="prozone-5" d="M96.5,83.8l-2.6-3.1,3-3.1,3.1-3.1,3.2,3.2,3.2,3.3-2.9,3c-1.6,1.6-3.2,3-3.6,3S98,85.6,96.5,83.8Z" transform="translate(-60.92 -62.95)"/></g><g id="layer107"><path class="prozone-6" d="M76.3,127.5c-.7-2.1-.5-2.3,4.5-2.9,2.9-.3,4.2-.1,4.2.7s.2.9.8,0c1.1-1.7,35.5-1.5,37.9.2,4,2.9.4,3.5-23.3,3.5C80.2,129,76.9,128.8,76.3,127.5Z" transform="translate(-60.92 -62.95)"/><path class="prozone-6" d="M85.3,121.5c-1.1-3.1,1.2-3.6,15.3-3.3,13.1.3,13.9.4,13.9,2.3s-.8,2-14.3,2.3C87.9,123,85.9,122.8,85.3,121.5Z" transform="translate(-60.92 -62.95)"/><path class="prozone-6" d="M62.2,114.8c-1.3-1.3-1.8-46.1-.6-49.2.5-1.4,4.9-1.6,38.3-1.6,28,0,38,.3,38.9,1.2,1.8,1.8,1.7,48.1-.2,49.7S63.8,116.4,62.2,114.8ZM137.5,90V66.5L117,66c-11.3-.3-28-.4-37.3-.2L63,66.1l.2,23.7.3,23.7,24,.5c13.2.3,29.9.3,37,0l13-.5Z" transform="translate(-60.92 -62.95)"/><path class="prozone-6" d="M93.6,110.7c-1.9-1.4-1.7-3.1,1.4-11.2.5-1.1,1.1-2.8,1.4-3.7.7-2.3,1.4-2.2,5.3.2l3.3,1.9-4.3,7.1c-2.3,3.8-4.4,7-4.8,7A8.2,8.2,0,0,1,93.6,110.7Z" transform="translate(-60.92 -62.95)"/><path class="prozone-6" d="M75.8,92.4c-14.6-7.4-14.6-8.1.1-16.3,6-3.4,11.4-6.1,12-6.1S89,71.2,89,72.8c0,2.4-1,3.2-8,7-4.4,2.4-8,4.4-8,4.6s3.6,2.1,8,4.2c7.2,3.4,8,4,8,6.6,0,1.6-.5,2.8-1.2,2.7S81.7,95.4,75.8,92.4Z" transform="translate(-60.92 -62.95)"/><path class="prozone-6" d="M111,95.2c0-2.4.9-3.2,7.5-6.5,4.1-2,7.5-4,7.5-4.5s-3.4-2.5-7.5-4.7C112,76,111,75.1,111,72.8c0-1.6.5-2.8,1.1-2.8s6,2.7,12,6.1c14.8,8.2,14.8,8.9-.1,16.4-6,3-11.4,5.5-12,5.5S111,96.7,111,95.2Z" transform="translate(-60.92 -62.95)"/><path class="prozone-6" d="M96.5,83.8l-2.6-3.1,3-3.1,3.1-3.1,3.2,3.2,3.2,3.3-2.9,3c-1.6,1.6-3.2,3-3.6,3S98,85.6,96.5,83.8Z" transform="translate(-60.92 -62.95)"/></g><g id="layer108"><path class="prozone-7" d="M77.4,128.1a3.23,3.23,0,0,1-.4-1.7c0-1.7,7.8-2.3,8.4-.7.4,1,4,1.2,14.8,1.1l14.3-.2L100,126l-14.5-.6,14.7-.2c8.9-.1,14.9.2,15.3.8s1.8.9,3.3.9l2.7-.1-3-.8-3-.8,3.7-.1c3.3-.1,5.8,1.3,4.5,2.5C123.2,128.2,78,128.6,77.4,128.1Zm4.7-1.9a4.34,4.34,0,0,0-3.2.5c-.6.6.3.7,2.3.4C84,126.7,84.1,126.5,82.1,126.2Z" transform="translate(-60.92 -62.95)"/><path class="prozone-7" d="M85.3,121.5c-1.1-3.1,1.2-3.6,15.3-3.3,13.1.3,13.9.4,13.9,2.3s-.8,2-14.3,2.3C87.9,123,85.9,122.8,85.3,121.5Z" transform="translate(-60.92 -62.95)"/><path class="prozone-7" d="M63.3,115.3a1.82,1.82,0,0,1-1.3-1.4c0-.6.4-.8.8-.5a74.71,74.71,0,0,0,10.5.7c5.3.2,9.7.6,9.7,1.1C83,116.1,65.4,116.2,63.3,115.3Z" transform="translate(-60.92 -62.95)"/><path class="prozone-7" d="M87.7,114.8c.5-1,23.2-.9,25.5,0,1,.4-4.5.7-12.1.7S87.4,115.2,87.7,114.8Z" transform="translate(-60.92 -62.95)"/><path class="prozone-7" d="M116.6,115.1c-.3-.5,4.1-.9,10.1-1s10.9-.4,11.3-.7.7-9.9,1-21.2l.6-20.7.2,20.6c.2,25.2.9,23.9-13.1,23.9C121.4,116,116.9,115.6,116.6,115.1Z" transform="translate(-60.92 -62.95)"/><path class="prozone-7" d="M94.3,111.3c-.7-.2-1.3-1.4-1.3-2.6,0-2.4,3.2-13.3,4.2-14.2s6.8,2.3,6.8,3.7-7.2,13.8-8,13.7A5.8,5.8,0,0,1,94.3,111.3Z" transform="translate(-60.92 -62.95)"/><path class="prozone-7" d="M75.8,92.4c-14.5-7.3-14.5-7.9.1-16.2,6-3.4,11.4-6.2,12-6.2S89,71.3,89,72.8c0,2.5-.8,3.2-5.8,5.6A65,65,0,0,0,75,83l-2.4,1.8,8.2,3.7c7.5,3.5,8.2,4,8.2,6.6,0,1.7-.5,2.9-1.2,2.8S81.7,95.4,75.8,92.4Z" transform="translate(-60.92 -62.95)"/><path class="prozone-7" d="M111,95.2c0-2.6.8-3.2,8-6.6,4.4-2.1,8-4,8-4.2s-3.6-2.2-8-4.6c-7-3.8-8-4.6-8-7,0-1.6.5-2.8,1-2.8s6,2.8,12,6.2c14.7,8.2,14.7,8.8.1,16.2-6,3.1-11.4,5.6-12,5.6S111,96.7,111,95.2Z" transform="translate(-60.92 -62.95)"/><path class="prozone-7" d="M97.2,84c-2.6-2.5-2.9-4.2-.4-3.3,1.5.6,1.5.5.3-1S96.1,78,100,78s4.1.2,2.9,1.7-1.2,1.6.4,1c.9-.3,1.7-.2,1.7.3,0,1-4,5-5,5A9.74,9.74,0,0,1,97.2,84Zm3.5-1.7a1.2,1.2,0,0,0-1.4,0c-.3.4,0,.7.7.7S101,82.7,100.7,82.3Z" transform="translate(-60.92 -62.95)"/><path class="prozone-7" d="M99.3,76.3a1.2,1.2,0,0,1,1.4,0c.3.4,0,.7-.7.7S99,76.7,99.3,76.3Z" transform="translate(-60.92 -62.95)"/><path class="prozone-7" d="M138,70c0-.7.3-1,.7-.7a1.2,1.2,0,0,1,0,1.4C138.3,71,138,70.7,138,70Z" transform="translate(-60.92 -62.95)"/><path class="prozone-7" d="M62.2,66.5c0-1.6.2-2.2.5-1.2a7.56,7.56,0,0,1,0,3C62.4,68.9,62.2,68.2,62.2,66.5Z" transform="translate(-60.92 -62.95)"/><path class="prozone-7" d="M100.5,65l-37-.5,36.7-.3c23.6-.1,36.9.2,37.3.8s.5.9.3.8S120.9,65.3,100.5,65Z" transform="translate(-60.92 -62.95)"/></g><g id="layer109"><path d="M85.3,121.5c-1.1-3.1,1.2-3.6,15.3-3.3,13.1.3,13.9.4,13.9,2.3s-.8,2-14.3,2.3C87.9,123,85.9,122.8,85.3,121.5Z" transform="translate(-60.92 -62.95)"/><path d="M94.3,111.3c-.7-.2-1.3-1.4-1.3-2.6,0-2.4,3.2-13.3,4.2-14.2s6.8,2.3,6.8,3.7-7.2,13.8-8,13.7A5.8,5.8,0,0,1,94.3,111.3Z" transform="translate(-60.92 -62.95)"/><path d="M75.8,92.4c-14.5-7.3-14.5-7.9.1-16.2,6-3.4,11.4-6.2,12-6.2S89,71.3,89,72.8c0,2.5-.8,3.2-5.8,5.6A65,65,0,0,0,75,83l-2.4,1.8,8.2,3.7c7.5,3.5,8.2,4,8.2,6.6,0,1.7-.5,2.9-1.2,2.8S81.7,95.4,75.8,92.4Z" transform="translate(-60.92 -62.95)"/><path d="M111,95.2c0-2.6.8-3.2,8-6.6,4.4-2.1,8-4,8-4.2s-3.6-2.2-8-4.6c-7-3.8-8-4.6-8-7,0-1.6.5-2.8,1-2.8s6,2.8,12,6.2c14.7,8.2,14.7,8.8.1,16.2-6,3.1-11.4,5.6-12,5.6S111,96.7,111,95.2Z" transform="translate(-60.92 -62.95)"/></g></svg>